<?xml version="1.0" encoding="UTF-8" standalone="no" ?>
<!DOCTYPE svg PUBLIC "-//W3C//DTD SVG 1.1//EN" "http://www.w3.org/Graphics/SVG/1.1/DTD/svg11.dtd">
<svg xmlns="http://www.w3.org/2000/svg" xmlns:xlink="http://www.w3.org/1999/xlink" version="1.1" width="1024" height="1024" viewBox="0 0 256 256" xml:space="preserve">
<desc>Created with Fabric.js 4.6.0</desc>
<defs>
</defs>
<g transform="matrix(1 0 0 1 32 128)" id="kAzW4CtwVPaeb3xLGXigT"  >
<g style="" vector-effect="non-scaling-stroke"   >
		<g transform="matrix(1 0 0 1 16 -112)" id="Kv6HuriMs87lVXWMyZgBX"  >
<path style="stroke: rgb(74,157,190); stroke-width: 0; stroke-dasharray: none; stroke-linecap: butt; stroke-dashoffset: 0; stroke-linejoin: miter; stroke-miterlimit: 4; fill: rgb(26,188,156); fill-rule: nonzero; opacity: 1;" vector-effect="non-scaling-stroke"  transform=" translate(-16, -16)" d="M 0 0 L 32 0 L 32 32 L 0 32 z" stroke-linecap="round" />
</g>
		<g transform="matrix(1 0 0 1 16 112)" id="6y0ETUi5xl5mny-5RQVRI"  >
<path style="stroke: rgb(74,157,190); stroke-width: 0; stroke-dasharray: none; stroke-linecap: butt; stroke-dashoffset: 0; stroke-linejoin: miter; stroke-miterlimit: 4; fill: rgb(26,188,156); fill-rule: nonzero; opacity: 1;" vector-effect="non-scaling-stroke"  transform=" translate(-16, -16)" d="M 0 0 L 32 0 L 32 32 L 0 32 z" stroke-linecap="round" />
</g>
		<g transform="matrix(1 0 0 1 -16 0)" id="q7yzjY_piCPqw31CafYLU"  >
<path style="stroke: rgb(74,157,190); stroke-width: 0; stroke-dasharray: none; stroke-linecap: butt; stroke-dashoffset: 0; stroke-linejoin: miter; stroke-miterlimit: 4; fill: rgb(26,188,156); fill-rule: nonzero; opacity: 1;" vector-effect="non-scaling-stroke"  transform=" translate(-16, -128)" d="M 0 0 L 32 0 L 32 256 L 0 256 z" stroke-linecap="round" />
</g>
</g>
</g>
<g transform="matrix(-1 0 0 -1 228 128)" id="qNtwQ-YPxwEcLYAq20unV"  >
<g style="" vector-effect="non-scaling-stroke"   >
		<g transform="matrix(1 0 0 1 16 -112)" id="AT950Ui0CGSPY1P_-PKX2"  >
<path style="stroke: rgb(74,157,190); stroke-width: 0; stroke-dasharray: none; stroke-linecap: butt; stroke-dashoffset: 0; stroke-linejoin: miter; stroke-miterlimit: 4; fill: rgb(26,188,156); fill-rule: nonzero; opacity: 1;" vector-effect="non-scaling-stroke"  transform=" translate(-16, -16)" d="M 0 0 L 32 0 L 32 32 L 0 32 z" stroke-linecap="round" />
</g>
		<g transform="matrix(1 0 0 1 16 112)" id="yZxMPVIg19kZ8VMls1pxj"  >
<path style="stroke: rgb(74,157,190); stroke-width: 0; stroke-dasharray: none; stroke-linecap: butt; stroke-dashoffset: 0; stroke-linejoin: miter; stroke-miterlimit: 4; fill: rgb(26,188,156); fill-rule: nonzero; opacity: 1;" vector-effect="non-scaling-stroke"  transform=" translate(-16, -16)" d="M 0 0 L 32 0 L 32 32 L 0 32 z" stroke-linecap="round" />
</g>
		<g transform="matrix(1 0 0 1 -16 0)" id="kifbU4rrJNwU2ZfsYuEut"  >
<path style="stroke: rgb(74,157,190); stroke-width: 0; stroke-dasharray: none; stroke-linecap: butt; stroke-dashoffset: 0; stroke-linejoin: miter; stroke-miterlimit: 4; fill: rgb(26,188,156); fill-rule: nonzero; opacity: 1;" vector-effect="non-scaling-stroke"  transform=" translate(-16, -128)" d="M 0 0 L 32 0 L 32 256 L 0 256 z" stroke-linecap="round" />
</g>
</g>
</g>
<g transform="matrix(1 0 0 1 128 128)" id="o86H0G9fbemSuhydv2XzL"  >
<g style="" vector-effect="non-scaling-stroke"   >
		<g transform="matrix(1 0 0 1 0 -48)" id="8E5gJsoJZxQIR_eB_OHK_"  >
<path style="stroke: rgb(170,113,200); stroke-width: 0; stroke-dasharray: none; stroke-linecap: butt; stroke-dashoffset: 0; stroke-linejoin: miter; stroke-miterlimit: 4; fill: rgb(26,188,156); fill-rule: nonzero; opacity: 1;" vector-effect="non-scaling-stroke"  transform=" translate(-32, -16)" d="M 0 0 L 64 0 L 64 32 L 0 32 z" stroke-linecap="round" />
</g>
		<g transform="matrix(1 0 0 1 0 48)" id="bPLo4mO1zCXT-MxsB7TuJ"  >
<path style="stroke: rgb(170,113,200); stroke-width: 0; stroke-dasharray: none; stroke-linecap: butt; stroke-dashoffset: 0; stroke-linejoin: miter; stroke-miterlimit: 4; fill: rgb(26,188,156); fill-rule: nonzero; opacity: 1;" vector-effect="non-scaling-stroke"  transform=" translate(-32, -16)" d="M 0 0 L 64 0 L 64 32 L 0 32 z" stroke-linecap="round" />
</g>
		<g transform="matrix(1 0 0 1 -48 0)" id="08_gEkll9RWbIvYvl-au4"  >
<path style="stroke: rgb(170,113,200); stroke-width: 0; stroke-dasharray: none; stroke-linecap: butt; stroke-dashoffset: 0; stroke-linejoin: miter; stroke-miterlimit: 4; fill: rgb(26,188,156); fill-rule: nonzero; opacity: 1;" vector-effect="non-scaling-stroke"  transform=" translate(-16, -32)" d="M 0 0 L 32 0 L 32 64 L 0 64 z" stroke-linecap="round" />
</g>
		<g transform="matrix(0 -1 1 0 -48 -48)" id="12ffkEbK549JQ_NeqKRth"  >
<path style="stroke: none; stroke-width: 0; stroke-dasharray: none; stroke-linecap: butt; stroke-dashoffset: 0; stroke-linejoin: miter; stroke-miterlimit: 4; fill: rgb(26,188,156); fill-rule: nonzero; opacity: 1;" vector-effect="non-scaling-stroke"  transform=" translate(-16, -16)" d="M 0 0 L 32 32 L 0 32 z" stroke-linecap="round" />
</g>
		<g transform="matrix(1 0 0 1 48 -48)" id="J_o_TiQyO2A69V5C1Wxhc"  >
<path style="stroke: none; stroke-width: 0; stroke-dasharray: none; stroke-linecap: butt; stroke-dashoffset: 0; stroke-linejoin: miter; stroke-miterlimit: 4; fill: rgb(26,188,156); fill-rule: nonzero; opacity: 1;" vector-effect="non-scaling-stroke"  transform=" translate(-16, -16)" d="M 0 0 L 32 32 L 0 32 z" stroke-linecap="round" />
</g>
		<g transform="matrix(0 1 -1 0 48 48)" id="P0quHiadAnJJiB5syV-PU"  >
<path style="stroke: none; stroke-width: 0; stroke-dasharray: none; stroke-linecap: butt; stroke-dashoffset: 0; stroke-linejoin: miter; stroke-miterlimit: 4; fill: rgb(26,188,156); fill-rule: nonzero; opacity: 1;" vector-effect="non-scaling-stroke"  transform=" translate(-16, -16)" d="M 0 0 L 32 32 L 0 32 z" stroke-linecap="round" />
</g>
		<g transform="matrix(0 1 -1 0 48 16)" id="UG1foLC5vJdr8Q27JF7jF"  >
<path style="stroke: none; stroke-width: 0; stroke-dasharray: none; stroke-linecap: butt; stroke-dashoffset: 0; stroke-linejoin: miter; stroke-miterlimit: 4; fill: rgb(26,188,156); fill-rule: nonzero; opacity: 1;" vector-effect="non-scaling-stroke"  transform=" translate(-16, -16)" d="M 0 0 L 32 32 L 0 32 z" stroke-linecap="round" />
</g>
		<g transform="matrix(-1 0 0 -1 -48 48)" id="X44ptuqMBmeebRF4fkpcO"  >
<path style="stroke: none; stroke-width: 0; stroke-dasharray: none; stroke-linecap: butt; stroke-dashoffset: 0; stroke-linejoin: miter; stroke-miterlimit: 4; fill: rgb(26,188,156); fill-rule: nonzero; opacity: 1;" vector-effect="non-scaling-stroke"  transform=" translate(-16, -16)" d="M 0 0 L 32 32 L 0 32 z" stroke-linecap="round" />
</g>
		<g transform="matrix(-1 0 0 -1 16 16)" id="Rq4vR5L7FTwei5juwkbGP"  >
<path style="stroke: none; stroke-width: 0; stroke-dasharray: none; stroke-linecap: butt; stroke-dashoffset: 0; stroke-linejoin: miter; stroke-miterlimit: 4; fill: rgb(26,188,156); fill-rule: nonzero; opacity: 1;" vector-effect="non-scaling-stroke"  transform=" translate(-16, -16)" d="M 0 0 L 32 32 L 0 32 z" stroke-linecap="round" />
</g>
</g>
</g>
</svg>